<svg width="137" height="131" viewBox="0 0 137 131" version="1.1" xmlns="http://www.w3.org/2000/svg" xmlns:xlink="http://www.w3.org/1999/xlink">
<title>Icon</title>
<desc>Created using Figma</desc>
<g id="Canvas" transform="translate(-320 340)">
<g id="Icon">
<use xlink:href="#path0_fill" transform="translate(320 -340)"/>
<use xlink:href="#path1_fill" transform="translate(320 -340)"/>
</g>
</g>
<defs>
<path id="path0_fill" d="M 3.26369 36.3654C 0.142734 38.1592 -0.926588 42.1321 0.875308 45.2391C 2.6772 48.3461 6.66795 49.4106 9.78891 47.6168L 68.4799 13.8831L 127.211 47.6399C 130.332 49.4337 134.323 48.3692 136.125 45.2622C 137.927 42.1552 136.857 38.1823 133.736 36.3884L 71.9826 0.894462C 70.9883 0.322994 69.9059 0.0416217 68.8339 0.0239649C 67.5492 -0.086126 66.2188 0.180841 65.0174 0.871387L 3.26369 36.3654Z"/>
<path id="path1_fill" d="M 119.45 50.901C 115.86 50.5883 112.695 53.2321 112.38 56.8061L 107.002 118.008L 30.0645 118.008L 24.7093 57.0723C 24.3952 53.4983 21.2303 50.8545 17.6402 51.1671C 14.0502 51.4798 11.3945 54.6306 11.7086 58.2046L 17.5473 124.643C 17.7199 126.607 18.7533 128.29 20.2451 129.356C 21.3981 130.379 22.918 131 24.5836 131L 112.457 131C 114.625 131 116.546 129.947 117.732 128.328C 118.738 127.294 119.407 125.922 119.542 124.377L 125.381 57.9384C 125.695 54.3644 123.04 51.2136 119.45 50.901Z"/>
</defs>
</svg>
