<svg width="1440" height="967" viewBox="0 0 1440 967" version="1.1" xmlns="http://www.w3.org/2000/svg" xmlns:xlink="http://www.w3.org/1999/xlink">
  <title>Illustration</title>
  <desc>Created using Figma</desc>
  <g id="Canvas" transform="translate(720 456)">
    <g id="Illustration" opacity="0.25">
      <g id="Ellipse">
        <mask id="mask0_outline_ins">
          <use xlink:href="#path0_fill" fill="white" transform="translate(-1157 82)"/>
        </mask>
        <g mask="url(#mask0_outline_ins)">
          <use xlink:href="#path1_stroke_2x" transform="translate(-1157 82)" fill="#DDDDDD"/>
        </g>
      </g>
      <g id="Subtract">
        <mask id="mask1_outline_ins">
          <use xlink:href="#path2_fill" fill="white" transform="translate(122 -93)"/>
        </mask>
        <g mask="url(#mask1_outline_ins)">
          <use xlink:href="#path3_stroke_2x" transform="translate(122 -93)" fill="#DDDDDD"/>
        </g>
      </g>
      <g id="Subtract">
        <mask id="mask2_outline_ins">
          <use xlink:href="#path4_fill" fill="white" transform="translate(286 -169)"/>
        </mask>
        <g mask="url(#mask2_outline_ins)">
          <use xlink:href="#path5_stroke_2x" transform="translate(286 -169)" fill="#DDDDDD"/>
        </g>
      </g>
      <g id="Subtract">
        <mask id="mask3_outline_ins">
          <use xlink:href="#path6_fill" fill="white" transform="translate(166 45)"/>
        </mask>
        <g mask="url(#mask3_outline_ins)">
          <use xlink:href="#path7_stroke_2x" transform="translate(166 45)" fill="#DDDDDD"/>
        </g>
      </g>
      <g id="Ellipse">
        <mask id="mask4_outline_ins">
          <use xlink:href="#path10_fill" fill="white" transform="translate(-635 -456)"/>
        </mask>
        <g mask="url(#mask4_outline_ins)">
          <use xlink:href="#path11_stroke_2x" transform="translate(-635 -456)" fill="#DDDDDD"/>
        </g>
      </g>
      <g id="Union">
        <mask id="mask5_outline_ins">
          <use xlink:href="#path12_fill" fill="white" transform="translate(-374 -379)"/>
        </mask>
        <g mask="url(#mask5_outline_ins)">
          <use xlink:href="#path13_stroke_2x" transform="translate(-374 -379)" fill="#DDDDDD"/>
        </g>
      </g>
      <g id="Union">
        <mask id="mask6_outline_ins">
          <use xlink:href="#path14_fill" fill="white" transform="translate(-59 -433)"/>
        </mask>
        <g mask="url(#mask6_outline_ins)">
          <use xlink:href="#path15_stroke_2x" transform="translate(-59 -433)" fill="#DDDDDD"/>
        </g>
      </g>
    </g>
  </g>
  <defs>
    <path id="path0_fill" d="M 3823 675.5C 3823 1048.57 2967.19 1351 1911.5 1351C 855.808 1351 0 1048.57 0 675.5C 0 302.432 855.808 0 1911.5 0C 2967.19 0 3823 302.432 3823 675.5Z"/>
    <path id="path1_stroke_2x" d="M 3818 675.5C 3818 766.703 3765.71 854.281 3669.58 934.598C 3573.29 1015.09 3434.1 1087.44 3261.47 1148.44C 2915.99 1270.55 2438.95 1346.02 1911.5 1346L 1911.5 1356C 2439.74 1355.98 2918.45 1280.24 3264.8 1157.86C 3438.08 1096.62 3578.83 1023.41 3675.99 942.272C 3773.32 860.957 3828 770.832 3828 675.5L 3818 675.5ZM 1911.5 1346C 1384.05 1346.02 907.008 1270.55 561.531 1148.44C 388.9 1087.44 249.715 1015.09 153.421 934.598C 57.2912 854.281 5 766.703 5 675.5L -5 675.5C -5 770.832 49.6848 860.957 147.009 942.272C 244.17 1023.41 384.917 1096.62 558.199 1157.86C 904.55 1280.24 1383.26 1355.98 1911.5 1356L 1911.5 1346ZM 5 675.5C 5 584.297 57.2912 496.719 153.421 416.402C 249.715 335.91 388.9 263.557 561.531 202.564C 907.008 80.4546 1384.05 4.98462 1911.5 5L 1911.5 -5C 1383.26 -4.98462 904.55 70.7613 558.199 193.135C 384.917 254.384 244.17 327.588 147.009 408.728C 49.6848 490.043 -5 580.168 -5 675.5L 5 675.5ZM 1911.5 5C 2438.95 4.98462 2915.99 80.4546 3261.47 202.564C 3434.1 263.557 3573.29 335.91 3669.58 416.402C 3765.71 496.719 3818 584.297 3818 675.5L 3828 675.5C 3828 580.168 3773.32 490.043 3675.99 408.728C 3578.83 327.588 3438.08 254.384 3264.8 193.135C 2918.45 70.7613 2439.74 -4.98462 1911.5 -5L 1911.5 5Z"/>
    <path id="path2_fill" d="M 10 0C 4.47715 0 0 4.47716 0 10L 0 217.857C 142.386 200.22 292.473 188.37 448 183.106L 448 10C 448 4.47715 443.523 0 438 0L 10 0Z"/>
    <path id="path3_stroke_2x" d="M 0 217.857L -5 217.857L -5 223.514L 0.614646 222.819L 0 217.857ZM 448 183.106L 448.169 188.103L 453 187.94L 453 183.106L 448 183.106ZM 5 10C 5 7.23858 7.23858 5 10 5L 10 -5C 1.71572 -5 -5 1.71574 -5 10L 5 10ZM 5 217.857L 5 10L -5 10L -5 217.857L 5 217.857ZM 0.614646 222.819C 142.891 205.194 292.754 193.362 448.169 188.103L 447.831 178.109C 292.191 183.378 141.882 195.245 -0.614646 212.895L 0.614646 222.819ZM 443 10L 443 183.106L 453 183.106L 453 10L 443 10ZM 438 5C 440.761 5 443 7.23856 443 10L 453 10C 453 1.71574 446.284 -5 438 -5L 438 5ZM 10 5L 438 5L 438 -5L 10 -5L 10 5Z"/>
    <path id="path4_fill" d="M 10 0C 4.47714 0 0 4.47716 0 10L 0 81L 234 81L 234 10C 234 4.47716 229.523 0 224 0L 10 0Z"/>
    <path id="path5_stroke_2x" d="M 0 81L -5 81L -5 86L 0 86L 0 81ZM 234 81L 234 86L 239 86L 239 81L 234 81ZM 5 10C 5 7.23858 7.23857 5 10 5L 10 -5C 1.71571 -5 -5 1.71574 -5 10L 5 10ZM 5 81L 5 10L -5 10L -5 81L 5 81ZM 234 76L 0 76L 0 86L 234 86L 234 76ZM 229 10L 229 81L 239 81L 239 10L 229 10ZM 224 5C 226.761 5 229 7.23859 229 10L 239 10C 239 1.71573 232.284 -5 224 -5L 224 5ZM 10 5L 224 5L 224 -5L 10 -5L 10 5Z"/>
    <path id="path6_fill" d="M 10 0C 4.47716 0 0 4.47715 0 10L 0 74.6193C 29.0356 71.3025 58.3751 68.2244 88 65.3917L 88 10C 88 4.47715 83.5228 0 78 0L 10 0Z"/>
    <path id="path7_stroke_2x" d="M 0 74.6193L -5 74.6193L -5 80.223L 0.567485 79.587L 0 74.6193ZM 88 65.3917L 88.4759 70.369L 93 69.9364L 93 65.3917L 88 65.3917ZM 5 10C 5 7.23858 7.23858 5 10 5L 10 -5C 1.71574 -5 -5 1.71573 -5 10L 5 10ZM 5 74.6193L 5 10L -5 10L -5 74.6193L 5 74.6193ZM 0.567485 79.587C 29.5802 76.2727 58.8739 73.1995 88.4759 70.369L 87.5241 60.4144C 57.8763 63.2494 28.491 66.3322 -0.567485 69.6517L 0.567485 79.587ZM 83 10L 83 65.3917L 93 65.3917L 93 10L 83 10ZM 78 5C 80.7614 5 83 7.23858 83 10L 93 10C 93 1.71573 86.2843 -5 78 -5L 78 5ZM 10 5L 78 5L 78 -5L 10 -5L 10 5Z"/>
    <path id="path8_stroke" d="M 589.975 -2.44425C 531.316 10.1566 446.337 34.0183 382.435 64.5316C 350.502 79.7848 323.511 96.8442 307.697 115.224C 299.77 124.438 294.531 134.121 293.012 144.195C 291.484 154.329 293.758 164.606 300.402 174.859L 304.598 172.141C 298.542 162.794 296.63 153.736 297.956 144.941C 299.292 136.086 303.95 127.246 311.487 118.485C 326.604 100.916 352.819 84.2194 384.59 69.0434C 448.097 38.6984 532.517 15.0101 591.025 2.44425L 589.975 -2.44425ZM 300.402 174.859C 312.282 193.195 307.978 214.287 291.783 237.121C 275.588 259.953 247.91 283.852 214.621 307.036C 148.059 353.402 59.9714 396.305 -0.961538 421.692L 0.961538 426.308C 62.0286 400.862 150.591 357.714 217.479 311.139C 250.915 287.852 279.162 263.557 295.861 240.014C 312.559 216.471 318.118 193.005 304.598 172.141L 300.402 174.859Z"/>
    <path id="path9_stroke" d="M 23.6409 179L 24.6298 176.704L 23.6409 179ZM 221.116 -2.44425C 162.229 10.2246 90.7522 45.9947 44.9527 83.1396C 22.0908 101.691 5.15004 120.936 -0.472687 138.208C -3.31422 146.936 -3.31985 155.343 0.477385 162.859C 4.25479 170.336 11.5969 176.535 22.6521 181.296L 24.6298 176.704C 14.2347 172.227 8.01512 166.691 4.94015 160.605C 1.88502 154.557 1.73633 147.574 4.28171 139.756C 9.43284 123.933 25.3859 105.456 48.1032 87.0222C 93.4624 50.1965 163.886 14.942 222.166 2.44425L 221.116 -2.44425ZM 22.6521 181.296C 90.626 210.57 120.137 248.688 124.464 295.791C 128.828 343.309 107.67 400.602 72.4232 468.346L 76.8588 470.654C 112.112 402.898 133.953 344.441 129.443 295.334C 124.894 245.812 93.6555 206.43 24.6298 176.704L 22.6521 181.296Z"/>
    <path id="path10_fill" d="M 134 67C 134 104.003 104.003 134 67 134C 29.9969 134 0 104.003 0 67C 0 29.9969 29.9969 0 67 0C 104.003 0 134 29.9969 134 67Z"/>
    <path id="path11_stroke_2x" d="M 129 67C 129 101.242 101.242 129 67 129L 67 139C 106.765 139 139 106.765 139 67L 129 67ZM 67 129C 32.7583 129 5 101.242 5 67L -5 67C -5 106.765 27.2355 139 67 139L 67 129ZM 5 67C 5 32.7583 32.7583 5 67 5L 67 -5C 27.2355 -5 -5 27.2355 -5 67L 5 67ZM 67 5C 101.242 5 129 32.7583 129 67L 139 67C 139 27.2355 106.765 -5 67 -5L 67 5Z"/>
    <path id="path12_fill" d="M 89.99 25.7144C 89.9966 25.4771 90 25.239 90 25C 90 11.1929 78.8071 0 65 0C 56.1462 0 48.3674 4.60251 43.9256 11.5455C 40.1132 9.90729 35.9126 9 31.5 9C 14.103 9 0 23.103 0 40.5C 0 57.897 14.103 72 31.5 72C 35.8851 72 40.0609 71.104 43.8543 69.485C 48.0179 74.0996 54.0453 77 60.75 77C 70.9837 77 79.6393 70.2429 82.4984 60.9468C 83.2983 61.0552 84.1148 61.1111 84.9444 61.1111C 94.9163 61.1111 103 53.0274 103 43.0555C 103 34.835 97.5063 27.8976 89.99 25.7144Z"/>
    <path id="path13_stroke_2x" d="M 89.99 25.7144L 84.992 25.5743L 84.8837 29.4379L 88.5953 30.516L 89.99 25.7144ZM 43.9256 11.5455L 41.9516 16.1393L 45.8505 17.8147L 48.1374 14.24L 43.9256 11.5455ZM 43.8543 69.485L 47.5666 66.1355L 45.1751 63.4851L 41.8917 64.8863L 43.8543 69.485ZM 82.4984 60.9468L 83.1694 55.9921L 78.9662 55.4228L 77.7193 59.477L 82.4984 60.9468ZM 94.988 25.8545C 94.9955 25.5824 94.9999 25.2742 95 25L 85 25C 85.0001 25.2037 84.9978 25.3718 84.992 25.5743L 94.988 25.8545ZM 95 25C 95 8.43145 81.5686 -5 65 -5L 65 5C 76.0457 5 85 13.9543 85 25L 95 25ZM 65 -5C 54.3702 -5 45.0357 0.532258 39.7137 8.85096L 48.1374 14.24C 51.6991 8.67276 57.9223 5 65 5L 65 -5ZM 45.8996 6.95167C 41.6351 5.14453 36.4434 4.02825 31.5 4L 31.5 14C 35.3818 13.9717 38.5913 14.67 41.9516 16.1393L 45.8996 6.95167ZM 31.5 4C 11.3416 4 -5 20.3416 -5 40.5L 5 40.5C 5 25.8645 16.8645 14 31.5 14L 31.5 4ZM -5 40.5C -5 60.6584 11.3416 77 31.5 77L 31.5 67C 16.8645 67 5 55.1355 5 40.5L -5 40.5ZM 31.5 77C 36.4125 76.9721 41.5736 75.8697 45.8169 74.0837L 41.8917 64.8863C 38.5481 66.3383 35.3576 67.0279 31.5 67L 31.5 77ZM 40.1421 72.8345C 45.2137 78.4555 52.5714 82 60.75 82L 60.75 72C 55.5192 72 50.8222 69.7437 47.5666 66.1355L 40.1421 72.8345ZM 60.75 82C 73.2404 82 83.7912 73.7517 87.2774 62.4167L 77.7193 59.477C 75.4873 66.7341 68.7271 72 60.75 72L 60.75 82ZM 81.8273 65.9016C 82.7916 66.0294 83.9438 66.1082 84.9444 66.1111L 84.9444 56.1111C 84.2858 56.114 83.8049 56.0809 83.1694 55.9921L 81.8273 65.9016ZM 84.9444 66.1111C 97.6777 66.1111 108 55.7888 108 43.0555L 98 43.0555C 98 50.266 92.1548 56.1111 84.9444 56.1111L 84.9444 66.1111ZM 108 43.0555C 108 32.5513 100.979 23.6997 91.3846 20.9129L 88.5953 30.516C 94.0333 32.0955 98 37.1188 98 43.0555L 108 43.0555Z"/>
    <path id="path14_fill" d="M 51.5477 14.694C 51.5515 14.5583 51.5534 14.4223 51.5534 14.2857C 51.5534 6.39593 45.1419 0 37.233 0C 32.1614 0 27.7056 2.63001 25.1612 6.59743C 22.9775 5.66131 20.5713 5.14286 18.0437 5.14286C 8.07843 5.14286 0 13.2017 0 23.1429C 0 33.084 8.07843 41.1429 18.0437 41.1429C 20.5555 41.1429 22.9475 40.6309 25.1204 39.7057C 27.5054 42.3426 30.958 44 34.7985 44C 40.6606 44 45.6186 40.1388 47.2563 34.8268C 47.7145 34.8887 48.1823 34.9206 48.6575 34.9206C 54.3695 34.9206 59 30.3014 59 24.6032C 59 19.9057 55.8531 15.9415 51.5477 14.694Z"/>
    <path id="path15_stroke_2x" d="M 51.5477 14.694L 46.5496 14.5535L 46.441 18.4199L 50.1561 19.4964L 51.5477 14.694ZM 25.1612 6.59743L 23.1913 11.193L 27.0838 12.8616L 29.3701 9.29661L 25.1612 6.59743ZM 25.1204 39.7057L 28.8286 36.3518L 26.4392 33.71L 23.1618 35.1053L 25.1204 39.7057ZM 47.2563 34.8268L 47.9258 29.8718L 43.7267 29.3045L 42.4783 33.3537L 47.2563 34.8268ZM 56.5457 14.8344C 56.5504 14.6639 56.5533 14.4576 56.5534 14.2857L 46.5534 14.2857C 46.5535 14.3869 46.5526 14.4528 46.5496 14.5535L 56.5457 14.8344ZM 56.5534 14.2857C 56.5534 3.62308 47.8919 -5 37.233 -5L 37.233 5C 42.392 5 46.5534 9.16877 46.5534 14.2857L 56.5534 14.2857ZM 37.233 -5C 30.3909 -5 24.3793 -1.44542 20.9524 3.89825L 29.3701 9.29661C 31.0319 6.70543 33.9319 5 37.233 5L 37.233 -5ZM 27.1312 2.00187C 24.4961 0.897505 21.1008 0.17098 18.0437 0.142857L 18.0437 10.1429C 20.0417 10.1147 21.4588 10.4251 23.1913 11.193L 27.1312 2.00187ZM 18.0437 0.142857C 5.32844 0.142857 -5 10.4289 -5 23.1429L 5 23.1429C 5 15.9746 10.8284 10.1429 18.0437 10.1429L 18.0437 0.142857ZM -5 23.1429C -5 35.8568 5.32844 46.1429 18.0437 46.1429L 18.0437 36.1429C 10.8284 36.1429 5 30.3111 5 23.1429L -5 23.1429ZM 18.0437 46.1429C 21.0817 46.1151 24.457 45.3976 27.079 44.3062L 23.1618 35.1053C 21.438 35.8642 20.0293 36.1706 18.0437 36.1429L 18.0437 46.1429ZM 21.4122 43.0597C 24.7066 46.7021 29.4884 49 34.7985 49L 34.7985 39C 32.4275 39 30.3042 37.9832 28.8286 36.3518L 21.4122 43.0597ZM 34.7985 49C 42.9092 49 49.7665 43.6558 52.0344 36.2999L 42.4783 33.3537C 41.4707 36.6218 38.4119 39 34.7985 39L 34.7985 49ZM 46.5869 39.7817C 47.2091 39.8631 48.0117 39.9177 48.6575 39.9206L 48.6575 29.9206C 48.3528 29.9235 48.22 29.9143 47.9258 29.8718L 46.5869 39.7817ZM 48.6575 39.9206C 57.1195 39.9206 64 33.0742 64 24.6032L 54 24.6032C 54 27.5285 51.6195 29.9206 48.6575 29.9206L 48.6575 39.9206ZM 64 24.6032C 64 17.6138 59.3177 11.7397 52.9392 9.89149L 50.1561 19.4964C 52.3886 20.1433 54 22.1977 54 24.6032L 64 24.6032Z"/>
  </defs>
</svg>

